<svg xmlns="http://www.w3.org/2000/svg" width="512" height="512" viewBox="0 0 512 512"><rect width="512" height="512" rx="110" fill="#fffaf3"/><rect x="78" y="170" width="356" height="250" rx="24" fill="#f5a623" stroke="#7a3f16" stroke-width="14"/><rect x="58" y="145" width="396" height="78" rx="18" fill="#ef4b32" stroke="#7a3f16" stroke-width="12"/><path d="M78 223h356l-34 58H112z" fill="#fff"/><path d="M112 223h58v58h-58zm116 0h58v58h-58zm116 0h58v58h-58z" fill="#ef4b32"/><rect x="188" y="292" width="136" height="128" rx="12" fill="#fff" stroke="#7a3f16" stroke-width="10"/><rect x="211" y="318" width="90" height="78" rx="8" fill="#69b7e8"/><path d="M256 318v78M211 357h90" stroke="#fff" stroke-width="8"/><rect x="168" y="72" width="176" height="72" rx="18" fill="#ef4b32"/><text x="256" y="119" text-anchor="middle" font-family="Arial,sans-serif" font-size="42" font-weight="700" fill="#fff">HOTEL</text><circle cx="92" cy="294" r="30" fill="#4caf50"/><circle cx="420" cy="294" r="30" fill="#4caf50"/><circle cx="92" cy="355" r="30" fill="#4caf50"/><circle cx="420" cy="355" r="30" fill="#4caf50"/></svg>